# xmcd
#
# Track frame offsets: 
#        150
#        14701
#        25164
#        39701
#        56671
#        66675
#        79135
#        90426
#        111260
#        125657
#        135951
#        157746
#        173145
#
# Disc length: 2536 seconds
#
# Revision: 1
# Processed by: cddbd v1.5.2PL0 Copyright (c) Steve Scherf et al.
# Submitted via: ExactAudioCopy v0.99pb4
#
DISCID=ac09e60d
DTITLE=Kim Stockwood - I Love Santa
DYEAR=2006
DGENRE=Christmas
TTITLE0=I've Got My Love To Keep Me Warm
TTITLE1=We Wish You The Merriest
TTITLE2=If Everyday Was Like Christmas
TTITLE3=Home This Christmas (How Water Street Lit Up The Sky)
TTITLE4=Santa Bring My Baby Back To Me
TTITLE5=Silver Bells
TTITLE6=Holly Jolly Christmas
TTITLE7=Have Yourself A Merry Little Christmas
TTITLE8=Rudolph The Red-Nosed Reindeer
TTITLE9=I Love Santa
TTITLE10=Silent Night
TTITLE11=O Christmas Tree
TTITLE12=Marshmallow World
EXTD=
EXTT0=
EXTT1=
EXTT2=
EXTT3=
EXTT4=
EXTT5=
EXTT6=
EXTT7=
EXTT8=
EXTT9=
EXTT10=
EXTT11=
EXTT12=
PLAYORDER=
